<mxfile host="app.diagrams.net" agent="Mozilla/5.0 (Windows NT 10.0; Win64; x64; rv:141.0) Gecko/20100101 Firefox/141.0" version="28.1.1">
  <diagram name="第 1 页" id="9nvELv-jBjEvdrhT-c8X">
    <mxGraphModel dx="1314" dy="706" grid="1" gridSize="10" guides="1" tooltips="1" connect="1" arrows="1" fold="1" page="1" pageScale="1" pageWidth="827" pageHeight="1169" math="0" shadow="0">
      <root>
        <mxCell id="0" />
        <mxCell id="1" parent="0" />
        <mxCell id="31BTIq4y12bpniBmgGEL-3" style="edgeStyle=orthogonalEdgeStyle;rounded=0;orthogonalLoop=1;jettySize=auto;html=1;" parent="1" source="31BTIq4y12bpniBmgGEL-1" target="31BTIq4y12bpniBmgGEL-2" edge="1">
          <mxGeometry relative="1" as="geometry" />
        </mxCell>
        <mxCell id="31BTIq4y12bpniBmgGEL-1" value="Collect Weather Data" style="rounded=1;whiteSpace=wrap;html=1;" parent="1" vertex="1">
          <mxGeometry x="370" y="240" width="120" height="60" as="geometry" />
        </mxCell>
        <mxCell id="31BTIq4y12bpniBmgGEL-7" style="edgeStyle=orthogonalEdgeStyle;rounded=0;orthogonalLoop=1;jettySize=auto;html=1;" parent="1" source="31BTIq4y12bpniBmgGEL-2" target="31BTIq4y12bpniBmgGEL-6" edge="1">
          <mxGeometry relative="1" as="geometry" />
        </mxCell>
        <mxCell id="31BTIq4y12bpniBmgGEL-2" value="Sun Ray By Laydbug Sun Object" style="rounded=1;whiteSpace=wrap;html=1;" parent="1" vertex="1">
          <mxGeometry x="370" y="350" width="120" height="60" as="geometry" />
        </mxCell>
        <mxCell id="31BTIq4y12bpniBmgGEL-9" style="edgeStyle=orthogonalEdgeStyle;rounded=0;orthogonalLoop=1;jettySize=auto;html=1;" parent="1" source="31BTIq4y12bpniBmgGEL-6" target="31BTIq4y12bpniBmgGEL-8" edge="1">
          <mxGeometry relative="1" as="geometry" />
        </mxCell>
        <mxCell id="31BTIq4y12bpniBmgGEL-17" value="Yes" style="edgeLabel;html=1;align=center;verticalAlign=middle;resizable=0;points=[];" parent="31BTIq4y12bpniBmgGEL-9" vertex="1" connectable="0">
          <mxGeometry y="-1" relative="1" as="geometry">
            <mxPoint as="offset" />
          </mxGeometry>
        </mxCell>
        <mxCell id="31BTIq4y12bpniBmgGEL-11" style="edgeStyle=orthogonalEdgeStyle;rounded=0;orthogonalLoop=1;jettySize=auto;html=1;" parent="1" source="31BTIq4y12bpniBmgGEL-6" target="31BTIq4y12bpniBmgGEL-10" edge="1">
          <mxGeometry relative="1" as="geometry" />
        </mxCell>
        <mxCell id="31BTIq4y12bpniBmgGEL-18" value="No" style="edgeLabel;html=1;align=center;verticalAlign=middle;resizable=0;points=[];" parent="31BTIq4y12bpniBmgGEL-11" vertex="1" connectable="0">
          <mxGeometry x="-0.24" relative="1" as="geometry">
            <mxPoint as="offset" />
          </mxGeometry>
        </mxCell>
        <mxCell id="31BTIq4y12bpniBmgGEL-6" value="&lt;div&gt;If Ray&amp;nbsp;&lt;/div&gt;&lt;div&gt;Blocked&lt;/div&gt;" style="rhombus;whiteSpace=wrap;html=1;" parent="1" vertex="1">
          <mxGeometry x="390" y="440" width="80" height="80" as="geometry" />
        </mxCell>
        <mxCell id="31BTIq4y12bpniBmgGEL-8" value="Finished" style="rounded=1;whiteSpace=wrap;html=1;" parent="1" vertex="1">
          <mxGeometry x="240" y="465" width="90" height="30" as="geometry" />
        </mxCell>
        <mxCell id="31BTIq4y12bpniBmgGEL-13" style="edgeStyle=orthogonalEdgeStyle;rounded=0;orthogonalLoop=1;jettySize=auto;html=1;" parent="1" source="31BTIq4y12bpniBmgGEL-10" target="31BTIq4y12bpniBmgGEL-12" edge="1">
          <mxGeometry relative="1" as="geometry" />
        </mxCell>
        <mxCell id="31BTIq4y12bpniBmgGEL-10" value="output beam on reflection panel" style="rounded=1;whiteSpace=wrap;html=1;" parent="1" vertex="1">
          <mxGeometry x="510" y="450" width="120" height="60" as="geometry" />
        </mxCell>
        <mxCell id="31BTIq4y12bpniBmgGEL-15" style="edgeStyle=orthogonalEdgeStyle;rounded=0;orthogonalLoop=1;jettySize=auto;html=1;entryX=0.494;entryY=0.981;entryDx=0;entryDy=0;entryPerimeter=0;" parent="1" source="31BTIq4y12bpniBmgGEL-12" target="31BTIq4y12bpniBmgGEL-16" edge="1">
          <mxGeometry relative="1" as="geometry">
            <mxPoint x="430" y="870" as="targetPoint" />
          </mxGeometry>
        </mxCell>
        <mxCell id="31BTIq4y12bpniBmgGEL-12" value="Illumiance of output beam" style="rounded=1;whiteSpace=wrap;html=1;" parent="1" vertex="1">
          <mxGeometry x="510" y="350" width="120" height="60" as="geometry" />
        </mxCell>
        <mxCell id="31BTIq4y12bpniBmgGEL-20" style="edgeStyle=orthogonalEdgeStyle;rounded=0;orthogonalLoop=1;jettySize=auto;html=1;" parent="1" source="31BTIq4y12bpniBmgGEL-16" target="31BTIq4y12bpniBmgGEL-19" edge="1">
          <mxGeometry relative="1" as="geometry" />
        </mxCell>
        <mxCell id="31BTIq4y12bpniBmgGEL-24" value="No" style="edgeLabel;html=1;align=center;verticalAlign=middle;resizable=0;points=[];" parent="31BTIq4y12bpniBmgGEL-20" vertex="1" connectable="0">
          <mxGeometry x="-0.172" y="-1" relative="1" as="geometry">
            <mxPoint as="offset" />
          </mxGeometry>
        </mxCell>
        <mxCell id="31BTIq4y12bpniBmgGEL-22" style="edgeStyle=orthogonalEdgeStyle;rounded=0;orthogonalLoop=1;jettySize=auto;html=1;" parent="1" source="31BTIq4y12bpniBmgGEL-16" target="31BTIq4y12bpniBmgGEL-21" edge="1">
          <mxGeometry relative="1" as="geometry" />
        </mxCell>
        <mxCell id="31BTIq4y12bpniBmgGEL-23" value="Yes" style="edgeLabel;html=1;align=center;verticalAlign=middle;resizable=0;points=[];" parent="31BTIq4y12bpniBmgGEL-22" vertex="1" connectable="0">
          <mxGeometry x="0.0979" y="1" relative="1" as="geometry">
            <mxPoint as="offset" />
          </mxGeometry>
        </mxCell>
        <mxCell id="31BTIq4y12bpniBmgGEL-16" value="Metric if acceptable" style="rhombus;whiteSpace=wrap;html=1;" parent="1" vertex="1">
          <mxGeometry x="531" y="230" width="80" height="80" as="geometry" />
        </mxCell>
        <mxCell id="31BTIq4y12bpniBmgGEL-19" value="Duration of grare" style="rounded=1;whiteSpace=wrap;html=1;" parent="1" vertex="1">
          <mxGeometry x="660" y="240" width="120" height="60" as="geometry" />
        </mxCell>
        <mxCell id="31BTIq4y12bpniBmgGEL-21" value="Skipped" style="rounded=1;whiteSpace=wrap;html=1;" parent="1" vertex="1">
          <mxGeometry x="526" y="160" width="90" height="30" as="geometry" />
        </mxCell>
        <mxCell id="31BTIq4y12bpniBmgGEL-26" style="edgeStyle=orthogonalEdgeStyle;rounded=0;orthogonalLoop=1;jettySize=auto;html=1;entryX=0;entryY=0.5;entryDx=0;entryDy=0;exitX=0.5;exitY=1;exitDx=0;exitDy=0;" parent="1" source="SqEvLq8-Gef7RORNUauD-3" target="31BTIq4y12bpniBmgGEL-2" edge="1">
          <mxGeometry relative="1" as="geometry" />
        </mxCell>
        <mxCell id="31BTIq4y12bpniBmgGEL-25" value="Construct Urban Geomtry" style="rounded=1;whiteSpace=wrap;html=1;" parent="1" vertex="1">
          <mxGeometry x="210" y="160" width="120" height="60" as="geometry" />
        </mxCell>
        <mxCell id="SqEvLq8-Gef7RORNUauD-4" value="" style="edgeStyle=orthogonalEdgeStyle;rounded=0;orthogonalLoop=1;jettySize=auto;html=1;exitX=0.5;exitY=1;exitDx=0;exitDy=0;" edge="1" parent="1" source="31BTIq4y12bpniBmgGEL-25" target="SqEvLq8-Gef7RORNUauD-3">
          <mxGeometry relative="1" as="geometry">
            <mxPoint x="270" y="220" as="sourcePoint" />
            <mxPoint x="370" y="380" as="targetPoint" />
          </mxGeometry>
        </mxCell>
        <mxCell id="SqEvLq8-Gef7RORNUauD-3" value="Divide the geometry to mesh" style="rounded=1;whiteSpace=wrap;html=1;" vertex="1" parent="1">
          <mxGeometry x="210" y="270" width="120" height="60" as="geometry" />
        </mxCell>
      </root>
    </mxGraphModel>
  </diagram>
</mxfile>
